<svg version="1.1" viewBox="0.0 0.0 256.0 256.0" fill="none" stroke="none" stroke-linecap="square" stroke-miterlimit="10" xmlns:xlink="http://www.w3.org/1999/xlink" xmlns="http://www.w3.org/2000/svg"><clipPath id="p.0"><path d="m0 0l256.0 0l0 256.0l-256.0 0l0 -256.0z" clip-rule="nonzero"/></clipPath><g clip-path="url(#p.0)"><path fill="#000000" fill-opacity="0.0" d="m0 0l256.0 0l0 256.0l-256.0 0z" fill-rule="evenodd"/><path fill="#ffffff" d="m51.417805 64.81249c0 -17.508213 14.193211 -31.701424 31.70142 -31.701424l126.80189 0c8.40773 0 16.471115 3.339962 22.41629 9.285133c5.94516 5.9451714 9.285126 14.008549 9.285126 22.41629l0 145.1011c0 17.50821 -14.193207 31.701416 -31.701416 31.701416l-126.80189 0c-17.50821 0 -31.70142 -14.193207 -31.70142 -31.701416z" fill-rule="evenodd"/><path stroke="#000000" stroke-width="7.0997375328083985" stroke-linejoin="round" stroke-linecap="butt" d="m51.417805 64.81249c0 -17.508213 14.193211 -31.701424 31.70142 -31.701424l126.80189 0c8.40773 0 16.471115 3.339962 22.41629 9.285133c5.94516 5.9451714 9.285126 14.008549 9.285126 22.41629l0 145.1011c0 17.50821 -14.193207 31.701416 -31.701416 31.701416l-126.80189 0c-17.50821 0 -31.70142 -14.193207 -31.70142 -31.701416z" fill-rule="evenodd"/><path fill="#ffffff" d="m14.376727 46.085953c0 -17.508211 14.19321 -31.70142 31.70142 -31.70142l126.80189 0c8.40773 0 16.471115 3.339962 22.41629 9.285131c5.94516 5.9451694 9.285126 14.008551 9.285126 22.416288l0 145.10109c0 17.508224 -14.193207 31.701431 -31.701416 31.701431l-126.80189 0c-17.508211 0 -31.70142 -14.193207 -31.70142 -31.701431z" fill-rule="evenodd"/><path stroke="#000000" stroke-width="7.0997375328083985" stroke-linejoin="round" stroke-linecap="butt" d="m14.376727 46.085953c0 -17.508211 14.19321 -31.70142 31.70142 -31.70142l126.80189 0c8.40773 0 16.471115 3.339962 22.41629 9.285131c5.94516 5.9451694 9.285126 14.008551 9.285126 22.416288l0 145.10109c0 17.508224 -14.193207 31.701431 -31.701416 31.701431l-126.80189 0c-17.508211 0 -31.70142 -14.193207 -31.70142 -31.701431z" fill-rule="evenodd"/><path fill="#000000" d="m71.73303 100.98483c0.6913681 2.4197922 1.7487564 5.51062 3.172165 9.272476l4.666733 12.383636l-15.159271 0l4.9107513 -13.115677c1.037056 -2.826477 1.8402634 -5.6732864 2.4096222 -8.540436zm-3.0501556 -4.697235l-17.172379 44.715286l6.2833214 0l4.9107513 -13.542694l18.697453 0l5.215767 13.542694l6.7408447 0l-18.300934 -44.715286z" fill-rule="evenodd"/><path fill="#000000" d="m113.52017 95.525055c-3.009491 0 -5.744461 0.5083618 -8.204926 1.5250778c-2.4604568 1.016716 -4.331215 2.507904 -5.612282 4.473564c-1.2810669 1.9588776 -1.9216003 4.0668716 -1.9216003 6.32399c0 2.053772 0.52191925 3.9109802 1.5657501 5.571617c1.0506058 1.653862 2.6434631 3.0399857 4.778572 4.1583786c1.6470871 0.874382 4.524399 1.8063736 8.631943 2.7959747c4.107544 0.98283386 6.761177 1.7080917 7.960907 2.1757812c1.8707657 0.71170044 3.2128296 1.5928574 4.026207 2.6434708c0.8133774 1.0438232 1.2200623 2.2672806 1.2200623 3.6703568c0 1.3827362 -0.42362976 2.6604004 -1.2708969 3.833023c-0.84049225 1.1658325 -2.1249466 2.0842743 -3.853363 2.75531c-1.7284241 0.67103577 -3.7211914 1.006546 -5.9783096 1.006546c-2.5417938 0 -4.8294144 -0.44058228 -6.8628464 -1.3217316c-2.0334396 -0.88793945 -3.5347977 -2.046997 -4.5040665 -3.4771729c-0.9624939 -1.436966 -1.5759125 -3.2738342 -1.8402634 -5.51062l-5.5817795 0.48802948c0.081336975 2.9891434 0.8981018 5.669899 2.4502869 8.042244c1.5589676 2.3655548 3.7042465 4.1380463 6.435829 5.3174286c2.7383652 1.1793976 6.1308136 1.769104 10.177353 1.769104c3.1924973 0 6.063034 -0.5829315 8.61161 -1.748764c2.5553513 -1.1726227 4.514229 -2.8095398 5.876625 -4.9107513c1.3624115 -2.1080017 2.0436096 -4.3515472 2.0436096 -6.7306824c0 -2.3994522 -0.6201935 -4.5176163 -1.8605957 -6.3544846c-1.240387 -1.8436508 -3.161995 -3.3653412 -5.7647934 -4.5650635c-1.7894211 -0.8133774 -5.09037 -1.7623138 -9.90284 -2.846817c-4.805687 -1.0912781 -7.777893 -2.1554413 -8.916618 -3.1924973c-1.1590652 -1.0370483 -1.738594 -2.3587875 -1.738594 -3.9652023c0 -1.8504257 0.81676483 -3.4297256 2.4502945 -4.7379074c1.6403046 -1.3149567 4.2498856 -1.972435 7.8287354 -1.972435c3.4365082 0 6.0325317 0.7218704 7.788063 2.1656113c1.7623138 1.4437408 2.7959747 3.5788498 3.1009903 6.405327l5.6732864 -0.42702484c-0.10166931 -2.6231308 -0.8337097 -4.9717484 -2.196106 -7.0458527c-1.3624039 -2.074112 -3.3111115 -3.6432495 -5.8461304 -4.7074127c-2.528244 -1.0709457 -5.4496155 -1.6064148 -8.764114 -1.6064148z" fill-rule="evenodd"/><path fill="#000000" d="m139.50749 96.2876l0 44.715286l27.939438 0l0 -5.276779l-22.022125 0l0 -39.438507z" fill-rule="evenodd"/><path stroke="#000000" stroke-width="4.0" stroke-linejoin="round" stroke-linecap="butt" d="m71.73303 100.98483c0.6913681 2.4197922 1.7487564 5.51062 3.172165 9.272476l4.666733 12.383636l-15.159271 0l4.9107513 -13.115677c1.037056 -2.826477 1.8402634 -5.6732864 2.4096222 -8.540436zm-3.0501556 -4.697235l-17.172379 44.715286l6.2833214 0l4.9107513 -13.542694l18.697453 0l5.215767 13.542694l6.7408447 0l-18.300934 -44.715286z" fill-rule="evenodd"/><path stroke="#000000" stroke-width="4.0" stroke-linejoin="round" stroke-linecap="butt" d="m113.52017 95.525055c-3.009491 0 -5.744461 0.5083618 -8.204926 1.5250778c-2.4604568 1.016716 -4.331215 2.507904 -5.612282 4.473564c-1.2810669 1.9588776 -1.9216003 4.0668716 -1.9216003 6.32399c0 2.053772 0.52191925 3.9109802 1.5657501 5.571617c1.0506058 1.653862 2.6434631 3.0399857 4.778572 4.1583786c1.6470871 0.874382 4.524399 1.8063736 8.631943 2.7959747c4.107544 0.98283386 6.761177 1.7080917 7.960907 2.1757812c1.8707657 0.71170044 3.2128296 1.5928574 4.026207 2.6434708c0.8133774 1.0438232 1.2200623 2.2672806 1.2200623 3.6703568c0 1.3827362 -0.42362976 2.6604004 -1.2708969 3.833023c-0.84049225 1.1658325 -2.1249466 2.0842743 -3.853363 2.75531c-1.7284241 0.67103577 -3.7211914 1.006546 -5.9783096 1.006546c-2.5417938 0 -4.8294144 -0.44058228 -6.8628464 -1.3217316c-2.0334396 -0.88793945 -3.5347977 -2.046997 -4.5040665 -3.4771729c-0.9624939 -1.436966 -1.5759125 -3.2738342 -1.8402634 -5.51062l-5.5817795 0.48802948c0.081336975 2.9891434 0.8981018 5.669899 2.4502869 8.042244c1.5589676 2.3655548 3.7042465 4.1380463 6.435829 5.3174286c2.7383652 1.1793976 6.1308136 1.769104 10.177353 1.769104c3.1924973 0 6.063034 -0.5829315 8.61161 -1.748764c2.5553513 -1.1726227 4.514229 -2.8095398 5.876625 -4.9107513c1.3624115 -2.1080017 2.0436096 -4.3515472 2.0436096 -6.7306824c0 -2.3994522 -0.6201935 -4.5176163 -1.8605957 -6.3544846c-1.240387 -1.8436508 -3.161995 -3.3653412 -5.7647934 -4.5650635c-1.7894211 -0.8133774 -5.09037 -1.7623138 -9.90284 -2.846817c-4.805687 -1.0912781 -7.777893 -2.1554413 -8.916618 -3.1924973c-1.1590652 -1.0370483 -1.738594 -2.3587875 -1.738594 -3.9652023c0 -1.8504257 0.81676483 -3.4297256 2.4502945 -4.7379074c1.6403046 -1.3149567 4.2498856 -1.972435 7.8287354 -1.972435c3.4365082 0 6.0325317 0.7218704 7.788063 2.1656113c1.7623138 1.4437408 2.7959747 3.5788498 3.1009903 6.405327l5.6732864 -0.42702484c-0.10166931 -2.6231308 -0.8337097 -4.9717484 -2.196106 -7.0458527c-1.3624039 -2.074112 -3.3111115 -3.6432495 -5.8461304 -4.7074127c-2.528244 -1.0709457 -5.4496155 -1.6064148 -8.764114 -1.6064148z" fill-rule="evenodd"/><path stroke="#000000" stroke-width="4.0" stroke-linejoin="round" stroke-linecap="butt" d="m139.50749 96.2876l0 44.715286l27.939438 0l0 -5.276779l-22.022125 0l0 -39.438507z" fill-rule="evenodd"/></g></svg>